<mxfile host="Electron" agent="Mozilla/5.0 (Windows NT 10.0; Win64; x64) AppleWebKit/537.36 (KHTML, like Gecko) draw.io/24.7.8 Chrome/128.0.6613.36 Electron/32.0.1 Safari/537.36" version="24.7.8">
  <diagram name="Страница — 1" id="kKNZDHZFmcJ3BMQZEFFZ">
    <mxGraphModel dx="1838" dy="1069" grid="1" gridSize="10" guides="1" tooltips="1" connect="1" arrows="1" fold="1" page="1" pageScale="1" pageWidth="827" pageHeight="1169" math="0" shadow="0">
      <root>
        <mxCell id="0" />
        <mxCell id="1" parent="0" />
        <mxCell id="ARpSkWRcK1mpRfUSZcVm-30" style="edgeStyle=orthogonalEdgeStyle;rounded=0;orthogonalLoop=1;jettySize=auto;html=1;exitX=0.5;exitY=1;exitDx=0;exitDy=0;exitPerimeter=0;" edge="1" parent="1" source="ARpSkWRcK1mpRfUSZcVm-1" target="ARpSkWRcK1mpRfUSZcVm-29">
          <mxGeometry relative="1" as="geometry" />
        </mxCell>
        <mxCell id="ARpSkWRcK1mpRfUSZcVm-23" style="edgeStyle=orthogonalEdgeStyle;rounded=0;orthogonalLoop=1;jettySize=auto;html=1;" edge="1" parent="1" source="ARpSkWRcK1mpRfUSZcVm-8" target="ARpSkWRcK1mpRfUSZcVm-22">
          <mxGeometry relative="1" as="geometry" />
        </mxCell>
        <mxCell id="ARpSkWRcK1mpRfUSZcVm-8" value="&lt;font color=&quot;#ffffff&quot;&gt;192.168.0.111&lt;/font&gt;&lt;div&gt;&lt;font color=&quot;#ffffff&quot;&gt;KYOCERA-SEC&lt;/font&gt;&lt;/div&gt;" style="fontColor=#0066CC;verticalAlign=top;verticalLabelPosition=bottom;labelPosition=center;align=center;html=1;outlineConnect=0;fillColor=#CCCCCC;strokeColor=#6881B3;gradientColor=none;gradientDirection=north;strokeWidth=2;shape=mxgraph.networks.printer;" vertex="1" parent="1">
          <mxGeometry x="400" y="735" width="100" height="100" as="geometry" />
        </mxCell>
        <mxCell id="ARpSkWRcK1mpRfUSZcVm-9" value="&#xa;" style="text;whiteSpace=wrap;" vertex="1" parent="1">
          <mxGeometry x="670" y="807" width="80" height="40" as="geometry" />
        </mxCell>
        <mxCell id="ARpSkWRcK1mpRfUSZcVm-24" style="edgeStyle=orthogonalEdgeStyle;rounded=0;orthogonalLoop=1;jettySize=auto;html=1;" edge="1" parent="1" source="ARpSkWRcK1mpRfUSZcVm-13" target="ARpSkWRcK1mpRfUSZcVm-22">
          <mxGeometry relative="1" as="geometry" />
        </mxCell>
        <mxCell id="ARpSkWRcK1mpRfUSZcVm-13" value="192.168.0.81&lt;br style=&quot;padding: 0px; margin: 0px;&quot;&gt;web gsm&lt;div style=&quot;padding: 0px; margin: 0px;&quot;&gt;&lt;br style=&quot;padding: 0px; margin: 0px; text-align: left; text-wrap: wrap;&quot;&gt;&lt;/div&gt;" style="sketch=0;pointerEvents=1;shadow=0;dashed=0;html=1;strokeColor=none;fillColor=#FFFFFF;labelPosition=center;verticalLabelPosition=bottom;verticalAlign=top;outlineConnect=0;align=center;shape=mxgraph.office.devices.phone_voip;" vertex="1" parent="1">
          <mxGeometry x="655.75" y="734.5" width="108.5" height="101" as="geometry" />
        </mxCell>
        <mxCell id="ARpSkWRcK1mpRfUSZcVm-15" value="" style="group" vertex="1" connectable="0" parent="1">
          <mxGeometry x="370" y="295" width="110" height="260" as="geometry" />
        </mxCell>
        <mxCell id="ARpSkWRcK1mpRfUSZcVm-1" value="" style="shape=mxgraph.cisco.hubs_and_gateways.generic_gateway;sketch=0;html=1;pointerEvents=1;dashed=0;fillColor=#036897;strokeColor=#ffffff;strokeWidth=2;verticalLabelPosition=bottom;verticalAlign=top;align=center;outlineConnect=0;movable=1;resizable=1;rotatable=1;deletable=1;editable=1;locked=0;connectable=1;" vertex="1" parent="ARpSkWRcK1mpRfUSZcVm-15">
          <mxGeometry x="22" y="90" width="66" height="74" as="geometry" />
        </mxCell>
        <mxCell id="ARpSkWRcK1mpRfUSZcVm-2" value="isp 1&lt;br&gt;217.21.60.36/18" style="text;html=1;align=center;verticalAlign=middle;resizable=1;points=[];autosize=1;strokeColor=none;fillColor=none;movable=1;rotatable=1;deletable=1;editable=1;locked=0;connectable=1;" vertex="1" parent="ARpSkWRcK1mpRfUSZcVm-15">
          <mxGeometry width="110" height="40" as="geometry" />
        </mxCell>
        <mxCell id="ARpSkWRcK1mpRfUSZcVm-3" value="isp 2&lt;br&gt;192.168.50.2/24" style="text;html=1;align=center;verticalAlign=middle;resizable=1;points=[];autosize=1;strokeColor=none;fillColor=none;movable=1;rotatable=1;deletable=1;editable=1;locked=0;connectable=1;" vertex="1" parent="ARpSkWRcK1mpRfUSZcVm-15">
          <mxGeometry y="40" width="110" height="40" as="geometry" />
        </mxCell>
        <mxCell id="ARpSkWRcK1mpRfUSZcVm-5" value="192.168.0.1/24&lt;div&gt;LAN&lt;/div&gt;" style="text;html=1;align=center;verticalAlign=middle;resizable=1;points=[];autosize=1;strokeColor=none;fillColor=none;movable=1;rotatable=1;deletable=1;editable=1;locked=0;connectable=1;" vertex="1" parent="ARpSkWRcK1mpRfUSZcVm-15">
          <mxGeometry x="5" y="180" width="100" height="40" as="geometry" />
        </mxCell>
        <mxCell id="ARpSkWRcK1mpRfUSZcVm-7" value="192.168.20.1/24&lt;br&gt;&lt;div&gt;LAN&lt;/div&gt;" style="text;html=1;align=center;verticalAlign=middle;resizable=1;points=[];autosize=1;strokeColor=none;fillColor=none;movable=1;rotatable=1;deletable=1;editable=1;locked=0;connectable=1;" vertex="1" parent="ARpSkWRcK1mpRfUSZcVm-15">
          <mxGeometry y="220" width="110" height="40" as="geometry" />
        </mxCell>
        <mxCell id="ARpSkWRcK1mpRfUSZcVm-16" value="192.168.20.220" style="image;aspect=fixed;perimeter=ellipsePerimeter;html=1;align=center;shadow=0;dashed=0;spacingTop=3;image=img/lib/active_directory/windows_server_2.svg;fontStyle=1" vertex="1" parent="1">
          <mxGeometry x="40" y="295" width="112" height="140" as="geometry" />
        </mxCell>
        <mxCell id="ARpSkWRcK1mpRfUSZcVm-21" value="PBX&lt;div&gt;192.168.0.75&lt;br&gt;&lt;/div&gt;" style="image;points=[];aspect=fixed;html=1;align=center;shadow=0;dashed=0;image=img/lib/allied_telesis/computer_and_terminals/VOIP_IP_phone.svg;" vertex="1" parent="1">
          <mxGeometry x="51.59" y="492" width="88.82" height="135" as="geometry" />
        </mxCell>
        <mxCell id="ARpSkWRcK1mpRfUSZcVm-22" value="L2 d-link&lt;div&gt;&lt;br&gt;&lt;/div&gt;" style="shape=mxgraph.cisco.switches.atm_fast_gigabit_etherswitch;sketch=0;html=1;pointerEvents=1;dashed=0;fillColor=#036897;strokeColor=#ffffff;strokeWidth=2;verticalLabelPosition=bottom;verticalAlign=top;align=center;outlineConnect=0;" vertex="1" parent="1">
          <mxGeometry x="550" y="598" width="64" height="64" as="geometry" />
        </mxCell>
        <mxCell id="ARpSkWRcK1mpRfUSZcVm-25" style="edgeStyle=orthogonalEdgeStyle;rounded=0;orthogonalLoop=1;jettySize=auto;html=1;" edge="1" parent="1" source="ARpSkWRcK1mpRfUSZcVm-1" target="ARpSkWRcK1mpRfUSZcVm-14">
          <mxGeometry relative="1" as="geometry" />
        </mxCell>
        <mxCell id="ARpSkWRcK1mpRfUSZcVm-26" style="edgeStyle=orthogonalEdgeStyle;rounded=0;orthogonalLoop=1;jettySize=auto;html=1;entryX=1.009;entryY=0.569;entryDx=0;entryDy=0;entryPerimeter=0;" edge="1" parent="1" source="ARpSkWRcK1mpRfUSZcVm-1" target="ARpSkWRcK1mpRfUSZcVm-21">
          <mxGeometry relative="1" as="geometry" />
        </mxCell>
        <mxCell id="ARpSkWRcK1mpRfUSZcVm-27" style="edgeStyle=orthogonalEdgeStyle;rounded=0;orthogonalLoop=1;jettySize=auto;html=1;exitX=0;exitY=0.5;exitDx=0;exitDy=0;exitPerimeter=0;" edge="1" parent="1" source="ARpSkWRcK1mpRfUSZcVm-1" target="ARpSkWRcK1mpRfUSZcVm-16">
          <mxGeometry relative="1" as="geometry" />
        </mxCell>
        <mxCell id="ARpSkWRcK1mpRfUSZcVm-14" value="VSERVER&lt;br&gt;192.168.0.197" style="image;aspect=fixed;perimeter=ellipsePerimeter;html=1;align=center;shadow=0;dashed=0;spacingTop=3;image=img/lib/active_directory/windows_server_2.svg;" vertex="1" parent="1">
          <mxGeometry x="210" y="352" width="112" height="140" as="geometry" />
        </mxCell>
        <mxCell id="ARpSkWRcK1mpRfUSZcVm-28" style="edgeStyle=orthogonalEdgeStyle;rounded=0;orthogonalLoop=1;jettySize=auto;html=1;entryX=0.5;entryY=0;entryDx=0;entryDy=0;entryPerimeter=0;" edge="1" parent="1" source="ARpSkWRcK1mpRfUSZcVm-1" target="ARpSkWRcK1mpRfUSZcVm-22">
          <mxGeometry relative="1" as="geometry" />
        </mxCell>
        <mxCell id="ARpSkWRcK1mpRfUSZcVm-29" value="" style="shape=actor;whiteSpace=wrap;html=1;" vertex="1" parent="1">
          <mxGeometry x="231" y="734.5" width="70" height="100.5" as="geometry" />
        </mxCell>
        <mxCell id="ARpSkWRcK1mpRfUSZcVm-31" value="Кабинет 229" style="text;html=1;align=center;verticalAlign=middle;resizable=0;points=[];autosize=1;strokeColor=none;fillColor=none;" vertex="1" parent="1">
          <mxGeometry x="225" y="843" width="90" height="30" as="geometry" />
        </mxCell>
        <mxCell id="ARpSkWRcK1mpRfUSZcVm-34" value="User" style="html=1;whiteSpace=wrap;strokeColor=none;fillColor=#0079D6;labelPosition=center;verticalLabelPosition=middle;verticalAlign=top;align=center;fontSize=12;outlineConnect=0;spacingTop=-6;fontColor=#FFFFFF;sketch=0;shape=mxgraph.sitemap.user;" vertex="1" parent="1">
          <mxGeometry x="370" y="510" width="120" height="70" as="geometry" />
        </mxCell>
      </root>
    </mxGraphModel>
  </diagram>
</mxfile>
